<?xml version="1.0" standalone="no"?>
<!DOCTYPE svg PUBLIC "-//W3C//DTD SVG 20010904//EN"
 "http://www.w3.org/TR/2001/REC-SVG-20010904/DTD/svg10.dtd">
<svg version="1.0" xmlns="http://www.w3.org/2000/svg"
 width="256.000000pt" height="256.000000pt" viewBox="0 0 256.000000 256.000000"
 preserveAspectRatio="xMidYMid meet">

<rect width="256" height="256" fill="#ffffff"/>
<g transform="translate(0.000000,256.000000) scale(0.100000,-0.100000)"
fill="#000000" stroke="none">
<path d="M0 1280 l0 -1280 1280 0 1280 0 0 1280 0 1280 -1280 0 -1280 0 0
-1280z m1972 652 c22 -22 23 -28 23 -212 0 -184 -1 -190 -23 -212 l-23 -23
-545 0 -546 0 -24 28 c-23 27 -24 32 -24 208 l0 181 29 29 30 30 540 -3 540
-3 23 -23z m-236 -655 l24 -28 0 -295 c0 -183 -4 -303 -10 -315 -26 -48 -34
-49 -577 -48 -366 0 -518 3 -543 12 -57 20 -62 48 -58 367 2 151 8 283 12 293
22 46 28 47 594 44 l534 -2 24 -28z"/>
</g>
</svg>
